<?xml version="1.0" encoding="UTF-8" standalone="no"?><svg xmlns:android="http://schemas.android.com/apk/res/android" height="512" width="512" xmlns="http://www.w3.org/2000/svg">
  <path d="M329.404,283.327h27.179c8.505,0 15.401,-6.896 15.401,-15.401s-6.895,-15.401 -15.401,-15.401h-27.179v-13.232c0,-0.92 -0.036,-1.831 -0.07,-2.742c12.547,-2.493 24.081,-8.628 33.329,-17.877c6.015,-6.013 6.015,-15.765 0,-21.78c-6.013,-6.013 -15.765,-6.013 -21.78,0c-5.271,5.271 -11.947,8.627 -19.182,9.721c-4.197,-8.406 -9.955,-15.897 -16.9,-22.092v-27.089c0,-8.505 -6.896,-15.401 -15.401,-15.401S274,148.928 274,157.434v10.694c-5.763,-1.458 -11.792,-2.24 -18.002,-2.24c-6.21,0 -12.239,0.782 -18.002,2.24v-10.694c0,-8.505 -6.896,-15.401 -15.401,-15.401s-15.401,6.896 -15.401,15.401v27.089c-6.945,6.195 -12.703,13.686 -16.9,22.092c-7.235,-1.094 -13.911,-4.45 -19.182,-9.721c-6.014,-6.013 -15.765,-6.013 -21.78,0c-6.015,6.013 -6.015,15.765 0,21.78c9.25,9.25 20.784,15.383 33.329,17.877c-0.034,0.912 -0.07,1.822 -0.07,2.742v13.232h-27.178c-8.505,0 -15.401,6.895 -15.401,15.401s6.895,15.401 15.401,15.401h27.179v13.233c0,0.92 0.036,1.831 0.07,2.742c-12.547,2.493 -24.081,8.628 -33.329,17.877c-6.015,6.013 -6.015,15.765 0,21.78c3.007,3.007 6.949,4.511 10.889,4.511s7.883,-1.504 10.889,-4.511c5.271,-5.271 11.947,-8.627 19.182,-9.721c12.043,24.117 36.964,40.727 65.703,40.727c0.155,0 0.308,-0.01 0.463,-0.011c0.078,0.001 0.154,0.011 0.233,0.011c0.237,0 0.468,-0.025 0.702,-0.036c28.147,-0.531 52.458,-16.968 64.306,-40.691c7.235,1.095 13.911,4.45 19.182,9.721c3.007,3.007 6.949,4.511 10.889,4.511s7.883,-1.504 10.889,-4.511c6.015,-6.013 6.015,-15.765 0,-21.78c-9.25,-9.25 -20.784,-15.383 -33.329,-17.877c0.034,-0.912 0.07,-1.822 0.07,-2.742V283.327zM241.295,336.547c-16.268,-6.002 -27.899,-21.661 -27.899,-39.987V261.49h27.899V336.547zM214.27,230.688c3.991,-19.38 21.185,-33.998 41.73,-33.998c20.545,0 37.739,14.616 41.73,33.998H214.27zM298.604,296.56c0,17.799 -10.974,33.074 -26.507,39.438v-74.508h26.507V296.56z" fill="#ff0000"/>
  <path d="M380.236,0H131.763C110.438,0 93.09,17.349 93.09,38.674v434.653c0,21.325 17.349,38.674 38.674,38.674h248.473c21.325,0 38.674,-17.349 38.674,-38.674V38.674C418.91,17.349 401.561,0 380.236,0zM388.108,473.326c0,4.34 -3.532,7.872 -7.872,7.872H131.763c-4.341,0 -7.872,-3.531 -7.872,-7.872v-53.055h264.217V473.326zM388.108,389.47H123.892V122.53h264.217V389.47zM388.108,91.728H123.892V38.674c0,-4.341 3.531,-7.872 7.872,-7.872h248.473c4.341,0 7.872,3.531 7.872,7.872V91.728z" fill="#ff0000"/>
</svg>