<?xml version="1.0" encoding="UTF-8" standalone="no"?><svg xmlns:android="http://schemas.android.com/apk/res/android" height="512" width="512" xmlns="http://www.w3.org/2000/svg">
  <path d="M365.916,320.624l-36.42,65.632l26.214,125.743h126.351v-15.017C482.062,418.044 434.168,350.088 365.916,320.624zM396.858,430.91h-32.036v-30.033h32.036V430.91z" fill="#DC143C"/>
  <path d="M214.227,320.624c-68.251,29.465 -116.146,97.42 -116.146,176.36V512h126.351l26.214,-125.745L214.227,320.624z" fill="#DC143C"/>
  <path d="M301.447,398.87l-22.751,0l-23.584,113.13l69.919,0z" fill="#DC143C"/>
  <path d="M290.072,73.731c-1.961,0 -3.911,0.051 -5.852,0.14v108.983h-79.088v53.225l-41.609,-22.334c3.475,34.55 20.837,65.061 46.401,85.863c11.516,9.37 24.693,16.772 39.019,21.68l26.384,47.547h29.488l26.384,-47.547c14.326,-4.909 27.504,-12.31 39.019,-21.68c28.685,-23.341 47.044,-58.907 47.044,-98.686C417.264,130.789 360.206,73.731 290.072,73.731z" fill="#DC143C"/>
  <path d="M29.939,0v152.821h83.581l61.58,33.053v-33.053h79.088V0H29.939zM195.456,89.767H88.671V59.733h106.785V89.767z" fill="#DC143C"/>
</svg>