<?xml version="1.0" encoding="UTF-8" standalone="no"?><svg xmlns:android="http://schemas.android.com/apk/res/android" height="512" width="512" xmlns="http://www.w3.org/2000/svg">
  <path d="M497,91L467,91C455.484,91 444.969,95.355 437,102.496C429.031,95.355 418.516,91 407,91C395.992,91 326.664,91 317,91C308.715,91 302,97.715 302,106C302,114.285 308.715,121 317,121L362,121L362,162.461L333.582,219.293C332.543,221.375 332,223.672 332,226L332,361L295.813,361L270,283.566L270,256C270,231.188 249.813,211 225,211L210,211L210,76C210,67.715 203.285,61 195,61L15,61C6.715,61 0,67.715 0,76L0,226C0,263.148 27.156,294.063 62.656,299.969C42.551,319.105 30,346.113 30,376C30,384.285 36.715,391 45,391L60,391C60,424.086 86.914,451 120,451C153.086,451 180,424.086 180,391C202.949,391 335.648,391 362,391C362,424.086 388.914,451 422,451C455.086,451 482,424.086 482,391L497,391C505.285,391 512,384.285 512,376C512,339.781 486.191,309.477 452,302.508L452,178.422C456.695,180.086 461.742,181 467,181L497,181C505.285,181 512,174.285 512,166L512,106C512,97.715 505.285,91 497,91ZM390.418,172.707C391.461,170.625 392,168.328 392,166L392,121L407,121C415.27,121 422,127.73 422,136L422,301L407,301C390.129,301 374.543,306.602 362,316.039L362,229.539ZM244.188,301L264.188,361L210,361L210,346C210,329.129 204.398,313.543 194.961,301ZM90,91L120,91L120,129.785L105,144.785L90,129.785ZM60,91L60,136C60,139.977 61.582,143.793 64.395,146.605L94.395,176.605C97.32,179.535 101.16,181 105,181C108.84,181 112.68,179.535 115.605,176.605L145.605,146.605C148.418,143.793 150,139.977 150,136L150,91L180,91L180,211L30,211L30,91ZM75,271C55.445,271 38.762,258.461 32.57,241L225,241C233.27,241 240,247.73 240,256L240,271ZM120,421C103.457,421 90,407.531 90,390.988L150,390.988C150,407.531 136.543,421 120,421ZM61.508,361C68.477,326.809 98.781,301 135,301C159.813,301 180,321.188 180,346L180,361C157.695,361 86.383,361 61.508,361ZM422,421C405.457,421 392,407.531 392,390.988L452,390.988C452,407.531 438.543,421 422,421ZM479.43,361L364.57,361C370.762,343.539 387.445,331 407,331L437,331C456.555,331 473.238,343.539 479.43,361ZM482,151L467,151C458.73,151 452,144.27 452,136C452,127.73 458.73,121 467,121L482,121ZM482,151" fill="#FFFFFF"/>
</svg>