<?xml version="1.0" encoding="UTF-8" standalone="no"?><svg xmlns:android="http://schemas.android.com/apk/res/android" height="512" width="512" xmlns="http://www.w3.org/2000/svg">
  <path d="m437,0h-181l-60,256 135,256h106c41.355,0 75,-33.645 75,-75v-362c0,-41.355 -33.645,-75 -75,-75zM437,0" fill="#3d4ec6"/>
  <path d="m75,0c-41.355,0 -75,33.645 -75,75v362c0,41.355 33.645,75 75,75h181v-512zM75,0" fill="#5766ce"/>
  <path d="m201,240h85v75h-85zM201,240" fill="#fff"/>
  <path d="m401,165v-75h-70c-41.422,0 -75,33.578 -75,75v347h75v-197h55l15,-75h-70v-75zM401,165" fill="#e1e7ff"/>
</svg>