<?xml version="1.0" encoding="UTF-8" standalone="no"?><svg xmlns:android="http://schemas.android.com/apk/res/android" height="511" width="511.99896" xmlns="http://www.w3.org/2000/svg">
  <path d="m436.18,254.578c-29.688,0 -48.543,16.809 -59.828,33.043 -11.281,-16.234 -30.129,-33.043 -59.816,-33.043 -43.813,0 -75.625,31.547 -75.625,75.023 0,50.801 44.195,88.754 105.371,141.258l30.07,25.949 9.816,-8.512c10.785,-9.336 21.059,-17.996 30.699,-26.145 17.934,-15.137 33.773,-28.527 46.992,-41.145 24.484,-23.387 47.141,-50.039 47.141,-86.484 0,-44.82 -32.867,-79.945 -74.82,-79.945zM436.18,254.578" fill="#DC143C"/>
  <path d="m315.957,153.543c6.023,5.086 12.441,10.508 19.164,16.34l9.836,8.512 9.832,-8.512c6.738,-5.848 13.156,-11.254 19.18,-16.355 35.094,-29.598 60.445,-50.992 60.445,-83.609 0,-31.078 -22.949,-55.418 -52.238,-55.418 -16.484,0 -28.707,7.531 -37.219,17.012 -8.516,-9.48 -20.738,-17.012 -37.223,-17.012 -29.289,0 -52.238,24.34 -52.238,55.418 0,25.113 15.504,43.199 32.254,59.023 8.027,7.574 17.539,15.605 28.207,24.602zM315.957,153.543" fill="#DC143C"/>
  <path d="m169.828,104.527c-25.25,0 -41.719,13.539 -51.949,27.301 -10.227,-13.762 -26.695,-27.301 -51.945,-27.301 -37.539,0 -66.934,31.359 -66.934,71.391 0,42.746 34.492,71.859 82.234,112.156 8.426,7.121 17.395,14.684 26.816,22.859l9.832,8.516 9.832,-8.516c9.422,-8.176 18.391,-15.734 26.816,-22.859 47.738,-40.297 82.23,-69.41 82.23,-112.156 0,-40.031 -29.395,-71.391 -66.934,-71.391zM169.828,104.527" fill="#DC143C"/>
</svg>