<?xml version="1.0" encoding="UTF-8" standalone="no"?><svg xmlns:android="http://schemas.android.com/apk/res/android" height="512" width="512" xmlns="http://www.w3.org/2000/svg">
  <path d="M504.078,1.775C499.2,-0.836 493.282,-0.549 488.68,2.52c-28.358,18.904 -57.873,41.69 -78.983,88.247C368.241,52.533 313.452,31 256,31c-36.931,0 -73.698,9.135 -106,26.047V15c0,-8.284 -6.716,-15 -15,-15s-15,6.716 -15,15v106H90V15c0,-8.284 -6.716,-15 -15,-15S60,6.716 60,15v106H30V15c0,-8.284 -6.716,-15 -15,-15S0,6.716 0,15c0,6.167 0,144.031 0,151c0,19.555 12.541,36.228 30,42.42V467c0,24.813 20.187,45 45,45s45,-20.187 45,-45v-30.967C159.183,465.534 207.212,482 256,482c63.171,0 123.503,-27.188 166,-73.035V467c0,24.813 20.187,45 45,45s45,-20.187 45,-45c0,-5.098 0,-444.998 0,-452C512,9.468 508.955,4.385 504.078,1.775zM150,91.666C181.098,71.846 218.432,61 256,61c54.286,0 105.796,22.132 142.608,60.968c-3.471,13.114 -5.6,26.563 -6.317,40.097C361.81,118.741 311.998,91 256,91c-38.953,0 -76.522,13.767 -106,37.952V91.666zM130.969,202.717c10.028,-7.113 17.023,-18.219 18.654,-30.986C175.193,139.889 214.634,121 256,121c74.99,0 136,60.561 136,135s-61.01,135 -136,135s-136,-60.56 -136,-135C120,237.461 123.692,219.558 130.969,202.717zM90,467c0,8.271 -6.729,15 -15,15s-15,-6.729 -15,-15V211h30V467zM105,181H45c-8.271,0 -15,-6.729 -15,-15v-15h90v15C120,174.271 113.271,181 105,181zM422,359.928C386.091,416.815 322.875,452 256,452c-50.107,0 -99.327,-20.091 -136,-55.301v-46.344C150.236,393.048 199.734,421 256,421c64.364,0 120.404,-36.856 147.953,-90.311c0.984,0.203 2.003,0.311 3.047,0.311h15V359.928zM482,467c0,8.271 -6.729,15 -15,15s-15,-6.729 -15,-15V316c0,-8.284 -6.716,-15 -15,-15h-15V172.333c0,-49.4 22.64,-97.112 60,-128.226C482,56.077 482,459.203 482,467z" fill="#ff0000"/>
</svg>