<?xml version="1.0" encoding="UTF-8" standalone="no"?><svg xmlns:android="http://schemas.android.com/apk/res/android" height="512" width="512" xmlns="http://www.w3.org/2000/svg">
  <path d="m436.719,70.855c-48.316,-45.691 -112.496,-70.855 -180.719,-70.855l-60,242.914 60,242.914c68.223,0 132.402,-25.164 180.719,-70.855 48.547,-45.91 75.281,-107.016 75.281,-172.059 0,-65.043 -26.734,-126.148 -75.281,-172.059zM436.719,70.855" fill="#2476ed"/>
  <path d="m75.281,70.855c-48.547,45.91 -75.281,107.016 -75.281,172.059 0,70.293 31.699,136.457 87.238,182.664v86.422l79.184,-41.477c28.633,10.16 58.73,15.305 89.578,15.305v-485.828c-68.223,0 -132.402,25.164 -180.719,70.855zM75.281,70.855" fill="#5596fb"/>
  <path d="m434.891,181.445 l-138.504,46.961 -40.387,-43.172 -20,65.871 20,65.871 27.297,29.176zM434.891,181.445" fill="#d5f1fe"/>
  <path d="m228.703,156.055 l-151.594,164.707 138.504,-46.961 40.387,43.176v-131.742zM228.703,156.055" fill="#fff"/>
</svg>