<?xml version="1.0" encoding="UTF-8" standalone="no"?><svg xmlns:android="http://schemas.android.com/apk/res/android" height="512.0002" width="512" xmlns="http://www.w3.org/2000/svg">
  <path d="m301.637,170c3.066,0 6.117,-0.953 8.684,-2.82 4.352,-3.16 6.641,-8.441 5.973,-13.781l-5.395,-43.145 29.727,-31.734c3.68,-3.93 4.93,-9.543 3.266,-14.664 -1.664,-5.117 -5.977,-8.922 -11.262,-9.938l-42.699,-8.203 -20.996,-38.078c-2.598,-4.711 -7.555,-7.637 -12.934,-7.637 -5.383,0 -10.336,2.926 -12.934,7.637l-20.996,38.078 -42.703,8.203c-5.281,1.012 -9.598,4.82 -11.262,9.938 -1.66,5.121 -0.41,10.734 3.27,14.664l29.727,31.734 -5.395,43.145c-0.672,5.34 1.617,10.621 5.973,13.781 4.352,3.164 10.078,3.711 14.953,1.422l39.367,-18.461 39.367,18.461c2,0.938 4.141,1.398 6.27,1.398zM280.73,107.047 L283.66,130.488 262.273,120.457c-1.988,-0.934 -4.129,-1.398 -6.273,-1.398 -2.141,0 -4.285,0.465 -6.27,1.398l-21.391,10.031 2.93,-23.441c0.547,-4.355 -0.875,-8.727 -3.875,-11.93l-16.148,-17.242 23.199,-4.457c4.309,-0.828 8.027,-3.527 10.148,-7.371l11.406,-20.691 11.406,20.688c2.121,3.844 5.84,6.547 10.148,7.375l23.203,4.453 -16.152,17.246c-3,3.203 -4.422,7.574 -3.875,11.93zM280.73,107.047" fill="#ff0000"/>
  <path d="m511.277,213.855c-1.664,-5.117 -5.977,-8.926 -11.262,-9.941l-42.703,-8.203 -20.996,-38.078c-2.598,-4.711 -7.551,-7.637 -12.934,-7.637 -5.379,0 -10.336,2.926 -12.934,7.637l-20.996,38.078 -42.699,8.203c-5.285,1.016 -9.598,4.824 -11.262,9.941 -1.664,5.117 -0.41,10.73 3.266,14.66l29.727,31.734 -5.395,43.148c-0.668,5.34 1.621,10.617 5.973,13.777 4.352,3.164 10.078,3.711 14.953,1.426l39.367,-18.465 39.371,18.465c1.996,0.938 4.137,1.398 6.266,1.398 3.07,0 6.117,-0.957 8.684,-2.82 4.352,-3.164 6.641,-8.441 5.973,-13.781l-5.395,-43.145 29.727,-31.738c3.68,-3.926 4.934,-9.543 3.27,-14.66zM451.988,245.113c-3,3.203 -4.418,7.574 -3.875,11.93l2.934,23.441 -21.391,-10.031c-1.988,-0.93 -4.129,-1.398 -6.27,-1.398 -2.145,0 -4.285,0.469 -6.273,1.398l-21.391,10.031 2.934,-23.441c0.543,-4.355 -0.875,-8.727 -3.879,-11.93l-16.148,-17.242 23.199,-4.457c4.313,-0.828 8.031,-3.527 10.148,-7.371l11.406,-20.691 11.41,20.691c2.117,3.844 5.836,6.543 10.148,7.371l23.199,4.457zM451.988,245.113" fill="#ff0000"/>
  <path d="m229.246,395.914 l-42.699,-8.199 -20.996,-38.078c-2.598,-4.711 -7.555,-7.641 -12.934,-7.641 -5.383,0 -10.336,2.93 -12.934,7.641l-20.996,38.078 -42.703,8.199c-5.285,1.016 -9.598,4.824 -11.262,9.941 -1.66,5.117 -0.41,10.734 3.27,14.66l29.723,31.734 -5.395,43.148c-0.668,5.34 1.621,10.617 5.977,13.781 4.352,3.16 10.078,3.711 14.949,1.422l39.371,-18.465 39.367,18.465c1.996,0.938 4.137,1.398 6.27,1.398 3.066,0 6.113,-0.957 8.68,-2.82 4.355,-3.164 6.645,-8.441 5.977,-13.781l-5.398,-43.148 29.727,-31.734c3.68,-3.926 4.93,-9.543 3.27,-14.66 -1.66,-5.117 -5.977,-8.926 -11.262,-9.941zM181.223,437.113c-3,3.203 -4.422,7.574 -3.879,11.93l2.934,23.441 -21.391,-10.031c-1.984,-0.93 -4.129,-1.398 -6.27,-1.398 -2.145,0 -4.285,0.469 -6.273,1.398l-21.387,10.031 2.93,-23.441c0.547,-4.355 -0.875,-8.727 -3.875,-11.93l-16.152,-17.242 23.199,-4.457c4.313,-0.828 8.031,-3.531 10.148,-7.371l11.41,-20.691 11.406,20.691c2.117,3.84 5.836,6.543 10.148,7.371l23.199,4.457zM181.223,437.113" fill="#ff0000"/>
  <path d="m436.016,395.914 l-42.703,-8.199 -20.996,-38.078c-2.598,-4.711 -7.551,-7.641 -12.934,-7.641 -5.379,0 -10.332,2.93 -12.934,7.641l-20.996,38.078 -42.699,8.199c-5.285,1.016 -9.598,4.824 -11.262,9.941 -1.664,5.117 -0.41,10.734 3.266,14.66l29.727,31.734 -5.395,43.148c-0.668,5.34 1.621,10.617 5.973,13.781 4.352,3.16 10.078,3.711 14.953,1.422l39.367,-18.465 39.371,18.465c1.996,0.938 4.137,1.398 6.266,1.398 3.07,0 6.117,-0.957 8.684,-2.82 4.352,-3.164 6.641,-8.441 5.973,-13.781l-5.395,-43.148 29.727,-31.734c3.68,-3.926 4.93,-9.543 3.266,-14.66 -1.66,-5.117 -5.973,-8.926 -11.258,-9.941zM387.992,437.113c-3.004,3.203 -4.422,7.574 -3.879,11.93l2.934,23.441 -21.391,-10.031c-1.988,-0.93 -4.129,-1.398 -6.27,-1.398 -2.145,0 -4.285,0.469 -6.273,1.398l-21.391,10.031 2.934,-23.441c0.547,-4.355 -0.875,-8.727 -3.875,-11.93l-16.152,-17.242 23.199,-4.457c4.313,-0.828 8.031,-3.531 10.148,-7.371l11.406,-20.691 11.41,20.691c2.117,3.84 5.836,6.543 10.148,7.371l23.199,4.457zM387.992,437.113" fill="#ff0000"/>
  <path d="m127.984,318.602c1.996,0.938 4.137,1.398 6.27,1.398 3.066,0 6.113,-0.957 8.684,-2.82 4.352,-3.164 6.641,-8.441 5.973,-13.781l-5.395,-43.145 29.723,-31.738c3.68,-3.926 4.934,-9.543 3.27,-14.66 -1.664,-5.117 -5.977,-8.926 -11.262,-9.941l-42.703,-8.199 -20.996,-38.078c-2.598,-4.711 -7.551,-7.641 -12.934,-7.641 -5.379,0 -10.336,2.93 -12.934,7.641l-20.992,38.074 -42.703,8.203c-5.285,1.016 -9.598,4.824 -11.262,9.941 -1.66,5.117 -0.41,10.73 3.266,14.66l29.727,31.734 -5.395,43.148c-0.668,5.34 1.621,10.617 5.973,13.777 4.352,3.164 10.082,3.711 14.953,1.426l39.371,-18.465zM60.957,280.484 L63.887,257.043c0.547,-4.355 -0.875,-8.727 -3.875,-11.93l-16.152,-17.242 23.199,-4.457c4.313,-0.828 8.031,-3.527 10.148,-7.371l11.41,-20.691 11.406,20.691c2.117,3.844 5.836,6.543 10.148,7.371l23.199,4.457 -16.148,17.242c-3,3.203 -4.422,7.574 -3.879,11.93l2.934,23.441 -21.391,-10.031c-1.984,-0.93 -4.129,-1.398 -6.27,-1.398 -2.145,0 -4.285,0.469 -6.273,1.398zM60.957,280.484" fill="#ff0000"/>
</svg>