<?xml version="1.0" encoding="UTF-8" standalone="no"?><svg xmlns:android="http://schemas.android.com/apk/res/android" height="512" width="512" xmlns="http://www.w3.org/2000/svg">
  <path d="M256.015,512c-67.778,0.005 -131.664,-26.361 -180.097,-74.378C27.015,389.139 0.053,324.71 0,256.203c-0.053,-68.419 26.55,-132.752 74.907,-181.149C123.262,26.66 187.569,0.005 255.981,0c68.562,-0.005 132.897,26.561 181.156,74.804S511.983,187.374 512,255.936c0.014,55.94 -17.692,109.086 -51.202,153.691c-7.759,10.328 -19.628,16.776 -32.562,17.69c-13.049,0.923 -25.835,-3.851 -35.083,-13.097l-30.408,-30.404l21.211,-21.215l30.408,30.404c3.098,3.097 7.388,4.695 11.756,4.387c4.322,-0.306 8.119,-2.36 10.692,-5.784c29.574,-39.365 45.2,-86.277 45.188,-135.664C481.969,131.349 380.578,29.991 255.983,30c-60.395,0.004 -117.166,23.536 -159.854,66.259C53.438,138.984 29.953,195.779 30,256.18c0.047,60.453 23.856,117.325 67.04,160.138c43.197,42.827 100.294,66.136 160.774,65.676c39.101,-0.307 77.556,-10.763 111.208,-30.238l15.026,25.966c-38.141,22.072 -81.711,33.923 -125.998,34.271C257.372,511.997 256.693,512 256.015,512z" fill="#A5E9FF"/>
  <path d="M257.814,481.993c-0.6,0.005 -1.198,-0.008 -1.798,-0.008L256.019,512c0.676,0 1.355,-0.003 2.031,-0.008c44.288,-0.348 87.857,-12.199 125.998,-34.271l-15.026,-25.966C335.37,471.23 296.915,481.686 257.814,481.993z" fill="#87DAFF"/>
  <path d="M437.137,74.804C388.879,26.561 324.543,-0.005 255.981,0l0.002,30C380.579,29.991 481.969,131.349 482,255.943c0.012,49.387 -15.614,96.299 -45.188,135.664c-2.573,3.424 -6.37,5.479 -10.692,5.784c-4.368,0.308 -8.658,-1.29 -11.756,-4.387L383.956,362.6l-21.211,21.215l30.408,30.404c9.248,9.246 22.034,14.02 35.083,13.097c12.935,-0.914 24.803,-7.362 32.562,-17.69c33.51,-44.605 51.216,-97.751 51.202,-153.691C511.983,187.374 485.396,123.047 437.137,74.804z" fill="#87DAFF"/>
  <path d="M342.3,282.833l-38.281,38.287l0,0c-58.886,-7.931 -105.206,-54.244 -113.145,-113.129l0,0l38.281,-38.287l-70.716,-70.706l-49.051,49.058c-3.821,66.25 19.562,133.775 70.181,184.386s118.147,73.984 184.396,70.154l49.051,-49.058L342.3,282.833z" fill="#00AAF0"/>
  <path d="M190.923,207.94l-70.724,-70.714l38.228,-38.233l70.724,70.714z" fill="#0096DC"/>
  <path d="M374.792,391.776l-70.724,-70.714l38.228,-38.233l70.724,70.714z" fill="#0096DC"/>
</svg>