<?xml version="1.0" encoding="UTF-8" standalone="no"?><svg xmlns:android="http://schemas.android.com/apk/res/android" height="512" width="512" xmlns="http://www.w3.org/2000/svg">
  <path d="m320,360v8h-256v-8l-16,-32v-8h288v8z" fill="#8aced8"/>
  <path d="m488,360l-96,-0l-0,-200l96,-0z" fill="#eaeae8"/>
  <path d="M192,104m-24,0a24,24 0,1 1,48 0a24,24 0,1 1,-48 0" fill="#cbcbcb"/>
  <path d="m336,304h-288v-40a144,144 0,0 1,144 -144,144 144,0 0,1 144,144z" fill="#dbdbdb"/>
  <path d="m304,272a8,8 0,0 1,-8 -8,104.137 104.137,0 0,0 -44.578,-85.359 8,8 0,1 1,9.156 -13.125,120.166 120.166,0 0,1 51.422,98.484 8,8 0,0 1,-8 8z" fill="#eaeae8"/>
  <path d="m224,164.641a8.1,8.1 0,0 1,-2.289 -0.336,102.348 102.348,0 0,0 -14.844,-3.25 8,8 0,0 1,2.266 -15.844,119.358 119.358,0 0,1 17.156,3.766 8,8 0,0 1,-2.289 15.664z" fill="#eaeae8"/>
  <path d="M392,160m-32,0a32,32 0,1 1,64 0a32,32 0,1 1,-64 0" fill="#fbb540"/>
  <path d="m392,192a32,32 0,0 0,32 -32h-32z" fill="#ea9d2d"/>
  <path d="m456,224a8,8 0,0 1,-8 -8v-128a7.992,7.992 0,0 1,3.2 -6.4l32,-24a8,8 0,1 1,9.6 12.8l-28.8,21.6v124a8,8 0,0 1,-8 8z" fill="#d9d9d9"/>
  <path d="m488,440h-232,-232v-80h464z" fill="#985713"/>
  <path d="m488,440h-232,-232v-24h464z" fill="#834b10"/>
  <path d="m392,216h96v144h-96z" fill="#fd9226"/>
  <path d="m450.772,284.111l-30.592,-9.344l9.344,-30.592l30.592,9.344z" fill="#e28222"/>
  <path d="m461.482,310.669l-28.256,15.04l-15.04,-28.256l28.256,-15.04z" fill="#e28222"/>
  <path d="M40,296L344,296A16,16 0,0 1,360 312L360,312A16,16 0,0 1,344 328L40,328A16,16 0,0 1,24 312L24,312A16,16 0,0 1,40 296z" fill="#b8eaee"/>
</svg>