<?xml version="1.0" encoding="UTF-8" standalone="no"?><svg xmlns:android="http://schemas.android.com/apk/res/android" height="511" width="512" xmlns="http://www.w3.org/2000/svg">
  <path d="m452.355,427.75h-392.711c-32.941,0 -59.645,-26.707 -59.645,-59.648v-223.953c0,-32.941 26.703,-59.648 59.645,-59.648h392.707c32.941,0 59.648,26.707 59.648,59.648v223.953c0,32.941 -26.707,59.648 -59.645,59.648zM452.355,427.75" fill="#f4e74d"/>
  <path d="m235.516,349.988h-138.793c-17.121,0 -31.004,-13.879 -31.004,-31.004s13.883,-31.004 31.004,-31.004h138.793c17.125,0 31.008,13.879 31.008,31.004 -0.004,17.125 -13.883,31.004 -31.008,31.004zM235.516,349.988" fill="#dd6642"/>
  <path d="m255.031,244.707h-177.824s-14.902,12.195 -23.254,31.813c-4.727,11.098 5.219,22.809 16.98,20.137 10.648,-2.422 23.527,-3.195 34.996,2.074 25.301,11.625 60.191,10.941 60.191,10.941s34.887,0.684 60.188,-10.941c11.473,-5.27 24.348,-4.496 34.996,-2.074 11.762,2.672 21.707,-9.039 16.98,-20.137 -8.352,-19.617 -23.254,-31.813 -23.254,-31.813zM255.031,244.707" fill="#29ce69"/>
  <path d="m241.488,263.926h-150.738c-32.633,0 -32.633,-32.633 -32.633,-32.633 0,-59.648 48.355,-108 108.004,-108 59.645,0 108,48.352 108,108 0,0 0,32.633 -32.633,32.633zM241.488,263.926" fill="#ffaa75"/>
  <path d="m258.855,388.957h-185.469c-10.762,0 -19.484,-8.723 -19.484,-19.484 0,-10.758 8.723,-19.48 19.484,-19.48h185.469c10.758,0 19.48,8.723 19.48,19.48 0.004,10.762 -8.723,19.484 -19.48,19.484zM258.855,388.957" fill="#ffaa75"/>
  <path d="m452.352,84.5h-185.734l-56.199,343.25h241.934c32.941,0 59.648,-26.707 59.648,-59.648v-223.957c0,-32.941 -26.707,-59.645 -59.648,-59.645zM452.352,84.5" fill="#fcf5af"/>
  <path d="m405.82,352.008h106.18v-191.766h-106.18c-22.383,0 -43.461,10.523 -56.914,28.41l-32.188,42.801c-10.988,14.609 -10.988,34.73 0,49.348l32.188,42.797c13.453,17.887 34.531,28.41 56.914,28.41zM405.82,352.008" fill="#ff938a"/>
  <path d="m131.258,175.695c0,4.266 -3.461,7.727 -7.727,7.727s-7.727,-3.461 -7.727,-7.727c0,-4.27 3.461,-7.727 7.727,-7.727s7.727,3.457 7.727,7.727zM131.258,175.695" fill="#fffcdc"/>
  <path d="m173.848,167.969c0,4.266 -3.461,7.727 -7.727,7.727 -4.27,0 -7.727,-3.461 -7.727,-7.727s3.457,-7.727 7.727,-7.727c4.266,0 7.727,3.461 7.727,7.727zM173.848,167.969" fill="#fffcdc"/>
  <path d="m210.418,223.66c0,4.27 -3.461,7.727 -7.727,7.727s-7.727,-3.457 -7.727,-7.727c0,-4.266 3.461,-7.727 7.727,-7.727s7.727,3.461 7.727,7.727zM210.418,223.66" fill="#fffcdc"/>
  <path d="m158.395,215.934c0,4.27 -3.461,7.727 -7.727,7.727 -4.27,0 -7.727,-3.457 -7.727,-7.727 0,-4.266 3.457,-7.727 7.727,-7.727 4.266,0 7.727,3.461 7.727,7.727zM158.395,215.934" fill="#fffcdc"/>
  <path d="m225.871,179.234c0,4.266 -3.461,7.727 -7.727,7.727 -4.27,0 -7.727,-3.461 -7.727,-7.727s3.457,-7.727 7.727,-7.727c4.266,0 7.727,3.461 7.727,7.727zM225.871,179.234" fill="#fffcdc"/>
  <path d="m110.574,223.66c0,4.27 -3.461,7.727 -7.727,7.727 -4.27,0 -7.727,-3.457 -7.727,-7.727 0,-4.266 3.457,-7.727 7.727,-7.727 4.266,0 7.727,3.461 7.727,7.727zM110.574,223.66" fill="#fffcdc"/>
  <path d="m384.383,299.543c-6.035,-6.035 -6.035,-15.816 0,-21.852l65.324,-65.328c6.031,-6.031 15.816,-6.031 21.852,0 6.035,6.035 6.035,15.82 0,21.855l-65.324,65.324c-9.633,9.246 -18.836,3.016 -21.852,0zM384.383,299.543" fill="#fffcdc"/>
  <path d="m476.086,288.957c0,8.531 -6.918,15.453 -15.453,15.453 -8.535,0 -15.453,-6.922 -15.453,-15.453 0,-8.535 6.918,-15.453 15.453,-15.453 8.535,0 15.453,6.918 15.453,15.453zM476.086,288.957" fill="#fffcdc"/>
  <path d="m410.762,223.293c0,8.535 -6.922,15.453 -15.453,15.453 -8.535,0 -15.453,-6.918 -15.453,-15.453 0,-8.535 6.918,-15.453 15.453,-15.453 8.531,0 15.453,6.918 15.453,15.453zM410.762,223.293" fill="#fffcdc"/>
</svg>