<?xml version="1.0" encoding="UTF-8" standalone="no"?><svg xmlns:android="http://schemas.android.com/apk/res/android" height="512" width="512" xmlns="http://www.w3.org/2000/svg">
  <path d="M88.94,421h334.12v91h-334.12z" fill="#DC143C"/>
  <path d="M408.058,48.979c-20.061,0 -39.182,5.614 -55.649,16.113c-6.065,-15.036 -15.629,-28.583 -28.037,-39.432C305.447,9.113 281.166,0 256,0c-25.166,0 -49.447,9.113 -68.372,25.661c-12.407,10.849 -21.971,24.396 -28.037,39.432c-16.467,-10.499 -35.588,-16.113 -55.649,-16.113C46.628,48.979 0,95.607 0,152.921c0,52.221 38.711,95.57 88.942,102.863V391h334.115V255.784C473.289,248.491 512,205.142 512,152.921C512,95.607 465.372,48.979 408.058,48.979z" fill="#DC143C"/>
</svg>