<?xml version="1.0" encoding="UTF-8" standalone="no"?><svg xmlns:android="http://schemas.android.com/apk/res/android" height="512.001" width="512.001" xmlns="http://www.w3.org/2000/svg">
  <path d="M350.952,365.555l-116.654,-70.641c9.257,-25.04 9.263,-52.77 0,-77.827l116.654,-70.641c54.036,52.677 144.892,14.024 144.892,-61.088C495.845,38.291 457.555,0 410.486,0c-56.883,0 -98.202,55.029 -81.763,109.836L212.066,180.48c-20.605,-22.727 -50.347,-37.023 -83.367,-37.023c-62.056,0 -112.543,50.486 -112.543,112.543s50.486,112.543 112.543,112.543c33.02,0 62.762,-14.297 83.367,-37.022l116.657,70.644c-16.415,54.729 24.798,109.836 81.763,109.836c47.067,0 85.359,-38.291 85.359,-85.358C495.845,351.415 404.927,312.94 350.952,365.555zM410.486,42.829c23.451,0 42.53,19.078 42.53,42.528s-19.078,42.53 -42.53,42.53c-23.451,0 -42.528,-19.078 -42.528,-42.53C367.958,61.907 387.037,42.829 410.486,42.829zM128.697,325.712c-38.439,0 -69.713,-31.273 -69.713,-69.713c0,-38.441 31.273,-69.713 69.713,-69.713c38.441,0 69.712,31.273 69.712,69.713C198.409,294.439 167.138,325.712 128.697,325.712zM410.486,469.171c-23.451,0 -42.528,-19.078 -42.528,-42.528c0,-23.451 19.078,-42.53 42.528,-42.53c23.451,0 42.53,19.078 42.53,42.53C453.016,450.092 433.938,469.171 410.486,469.171z" fill="#ff0000"/>
</svg>