<?xml version="1.0" encoding="UTF-8" standalone="no"?><svg xmlns:android="http://schemas.android.com/apk/res/android" height="511.188" width="511.188" xmlns="http://www.w3.org/2000/svg">
  <path d="m494.699,0.125 l-185.725,17.795c-12.69,1.229 -18.147,16.692 -9.198,25.619l29.15,29.15 -82.415,82.405c-5.868,5.878 -5.868,15.408 0,21.286l88.354,88.353c5.856,5.857 15.4,5.887 21.286,0l82.405,-82.415 29.15,29.15c8.929,8.951 24.391,3.486 25.619,-9.199l17.795,-185.723c0.89,-9.452 -7.044,-17.325 -16.421,-16.421zM466.412,167.624 L449.198,150.4c-5.878,-5.878 -15.408,-5.878 -21.286,0l-82.405,82.415 -67.078,-67.078 82.415,-82.405c5.868,-5.878 5.868,-15.408 0,-21.286l-17.223,-17.213 135.801,-13.01z" fill="#ff0000"/>
  <path d="m394.45,305.914c-13.384,-13.386 -34.763,-12.917 -47.538,-0.142 -14.742,14.741 -48.122,48.109 -48.132,48.12l-141.36,-141.371c7.153,-7.146 16.205,-16.186 47.967,-47.968 13.159,-13.14 13.211,-34.49 0.007,-47.696 -83.793,-83.792 -78.611,-78.641 -79.55,-79.496 -13.285,-12.097 -33.481,-11.893 -47.596,2.224 -0.196,0.195 -25.059,24.955 -25.183,25.202 -104.244,102.817 -39.877,226.133 63.721,329.732 98.23,98.251 216.71,164.707 320.204,72.825 6.371,-5.66 36.476,-35.908 38.107,-37.886 0.025,-0.031 0.05,-0.061 0.075,-0.092 10.913,-13.453 9.901,-32.838 -2.353,-45.093zM99.46,60.798c2.011,-2.011 4.333,-3.118 6.36,-1.087l78.36,78.359c1.483,1.483 1.415,3.85 -0.003,5.267 -7.07,7.075 -11.835,11.842 -15.585,15.593l-83.656,-83.657c6.033,-6.031 11.729,-11.68 14.524,-14.475zM138,373.307c-83.158,-83.159 -150.861,-187.653 -73.897,-276.441l83.278,83.278c-5.613,5.608 1.382,-1.381 -13.523,13.512 -10.473,10.472 -10.385,27.367 0,37.729l146.055,146.065c10.404,10.405 27.334,10.405 37.743,-0.004 7.133,-7.139 11.153,-11.161 13.51,-13.518l83.277,83.277c-88.497,76.729 -192.763,9.8 -276.443,-73.898zM451.717,410.566c-4.196,4.307 -11.477,11.604 -15.68,15.807l-83.649,-83.649 15.739,-15.738c1.196,-1.196 3.614,-1.355 5.112,0.142l78.369,78.359c1.342,1.342 1.545,3.6 0.109,5.079z" fill="#ff0000"/>
</svg>