<?xml version="1.0" encoding="UTF-8" standalone="no"?><svg xmlns:aapt="http://schemas.android.com/aapt" xmlns:android="http://schemas.android.com/apk/res/android" height="261" width="361" xmlns="http://www.w3.org/2000/svg">
  <path d="M29.898,166.832h5.116v19.112h0.177c1.058,-1.529 2.117,-2.94 3.117,-4.234l12.114,-14.878h6.351L42.424,183.65l15.467,22.817h-6.058l-13.055,-19.465l-3.764,4.352v15.113h-5.116V166.832z" fill="#fff"/>
  <path d="M86.59,206.468c-1.117,-1.117 -2.176,-2.234 -3.705,-3.881c-3.411,3.175 -7.233,4.527 -11.585,4.527c-7.704,0 -12.173,-5.175 -12.173,-11.114c0,-5.41 3.234,-9.115 7.762,-11.585v-0.177c-2.058,-2.587 -3.293,-5.469 -3.293,-8.292c0,-4.821 3.47,-9.762 10.056,-9.762c4.939,0 8.762,3.293 8.762,8.409c0,4.176 -2.411,7.469 -8.704,10.586v0.176c3.352,3.882 7.116,8.233 9.645,11.057c1.823,-2.765 3.058,-6.587 3.822,-11.586h4.705c-1.059,6.234 -2.764,11.174 -5.704,14.644c2.117,2.234 4.175,4.47 6.527,6.998H86.59zM80.356,199.646c-2.353,-2.588 -6.763,-7.41 -11.174,-12.468c-2.117,1.353 -5.116,3.882 -5.116,8.057c0,4.528 3.352,7.998 8.116,7.998C75.593,203.233 78.475,201.704 80.356,199.646zM68.301,175.477c0,2.822 1.293,4.998 2.999,7.115c3.999,-2.293 6.586,-4.41 6.586,-7.763c0,-2.411 -1.353,-5.116 -4.587,-5.116C70.006,169.713 68.301,172.418 68.301,175.477z" fill="#fff"/>
  <path d="M103.822,206.468l-10.056,-39.636h5.41l4.705,20.053c1.176,4.94 2.234,9.88 2.94,13.702h0.118c0.646,-3.94 1.882,-8.645 3.234,-13.761l5.292,-19.994h5.352l4.822,20.111c1.117,4.705 2.176,9.409 2.764,13.585h0.118c0.823,-4.352 1.941,-8.763 3.176,-13.702l5.234,-19.994h5.234l-11.232,39.636h-5.352l-4.999,-20.642c-1.235,-5.058 -2.058,-8.938 -2.587,-12.938h-0.118c-0.706,3.94 -1.588,7.821 -3.058,12.938l-5.646,20.642H103.822z" fill="#fff"/>
  <path d="M180.099,187.885h-15.408v14.29h17.172v4.293h-22.288v-39.636h21.406v4.293h-16.29v12.525h15.408V187.885z" fill="#fff"/>
  <path d="M190.744,178.005l4.058,6.116c1.059,1.588 1.941,3.058 2.881,4.646h0.177c0.941,-1.705 1.882,-3.176 2.823,-4.704l3.999,-6.058h5.586l-9.703,13.761l9.997,14.702h-5.88l-4.175,-6.41c-1.118,-1.646 -2.059,-3.234 -3.058,-4.939h-0.118c-0.941,1.705 -1.941,3.234 -2.999,4.939l-4.117,6.41h-5.705l10.115,-14.525l-9.645,-13.938H190.744z" fill="#fff"/>
  <path d="M215.562,187.297c0,-3.646 -0.118,-6.587 -0.235,-9.292h4.646l0.235,4.881h0.117c2.117,-3.47 5.469,-5.527 10.115,-5.527c6.88,0 12.055,5.821 12.055,14.467c0,10.232 -6.233,15.289 -12.938,15.289c-3.764,0 -7.057,-1.646 -8.762,-4.469h-0.118v15.466h-5.116V187.297zM220.678,194.883c0,0.765 0.118,1.47 0.235,2.117c0.941,3.587 4.058,6.057 7.762,6.057c5.469,0 8.645,-4.469 8.645,-10.997c0,-5.704 -3,-10.585 -8.468,-10.585c-3.528,0 -6.822,2.528 -7.821,6.41c-0.177,0.646 -0.353,1.411 -0.353,2.117V194.883z" fill="#fff"/>
  <path d="M249.024,186.885c0,-3.352 -0.059,-6.233 -0.235,-8.88h4.528l0.176,5.587h0.235c1.294,-3.822 4.411,-6.233 7.88,-6.233c0.588,0 1,0.059 1.47,0.176v4.882c-0.529,-0.118 -1.058,-0.177 -1.764,-0.177c-3.646,0 -6.233,2.764 -6.939,6.646c-0.118,0.705 -0.235,1.528 -0.235,2.411v15.172h-5.116V186.885z" fill="#fff"/>
  <path d="M270.549,193.178c0.118,6.998 4.587,9.879 9.762,9.879c3.705,0 5.939,-0.646 7.88,-1.47l0.882,3.705c-1.823,0.823 -4.94,1.764 -9.468,1.764c-8.762,0 -13.996,-5.763 -13.996,-14.349s5.057,-15.349 13.349,-15.349c9.292,0 11.761,8.174 11.761,13.408c0,1.059 -0.117,1.882 -0.176,2.411H270.549zM285.721,189.473c0.059,-3.293 -1.353,-8.41 -7.174,-8.41c-5.234,0 -7.527,4.822 -7.939,8.41H285.721z" fill="#fff"/>
  <path d="M296.426,201.175c1.529,1 4.234,2.059 6.821,2.059c3.764,0 5.528,-1.882 5.528,-4.234c0,-2.47 -1.47,-3.822 -5.293,-5.233c-5.116,-1.823 -7.527,-4.646 -7.527,-8.057c0,-4.587 3.705,-8.351 9.821,-8.351c2.882,0 5.411,0.823 6.998,1.764l-1.293,3.764c-1.118,-0.705 -3.176,-1.646 -5.822,-1.646c-3.058,0 -4.763,1.765 -4.763,3.882c0,2.352 1.706,3.41 5.41,4.822c4.94,1.882 7.469,4.352 7.469,8.585c0,4.999 -3.881,8.527 -10.644,8.527c-3.117,0 -5.999,-0.765 -7.998,-1.94L296.426,201.175z" fill="#fff"/>
  <path d="M319.715,201.175c1.529,1 4.234,2.059 6.821,2.059c3.764,0 5.528,-1.882 5.528,-4.234c0,-2.47 -1.47,-3.822 -5.293,-5.233c-5.116,-1.823 -7.527,-4.646 -7.527,-8.057c0,-4.587 3.705,-8.351 9.821,-8.351c2.882,0 5.411,0.823 6.998,1.764l-1.293,3.764c-1.118,-0.705 -3.176,-1.646 -5.822,-1.646c-3.058,0 -4.763,1.765 -4.763,3.882c0,2.352 1.706,3.41 5.41,4.822c4.94,1.882 7.469,4.352 7.469,8.585c0,4.999 -3.881,8.527 -10.644,8.527c-3.117,0 -5.999,-0.765 -7.998,-1.94L319.715,201.175z" fill="#fff"/>
  <path d="M60.299,248.649c-1.1,0 -2.039,-0.39 -2.817,-1.168c-0.779,-0.778 -1.168,-1.718 -1.168,-2.817v-13.965c0,-1.492 0.539,-2.782 1.617,-3.871c0.925,-0.86 2.009,-1.334 3.25,-1.421h10.421c0.315,0 0.609,0.076 0.882,0.229c0.021,0 0.038,0.011 0.049,0.032c0.022,0 0.043,0.012 0.065,0.033l0.098,0.098c0.011,0.011 0.021,0.02 0.033,0.024c0.011,0.006 0.016,0.014 0.016,0.024l0.033,0.017l0.049,0.065c0.022,0.011 0.038,0.02 0.049,0.024c0.011,0.006 0.016,0.014 0.016,0.024l0.114,0.131l0.033,0.082c0.022,0.011 0.038,0.029 0.049,0.057c0.011,0.027 0.021,0.055 0.033,0.082c0.011,0.027 0.021,0.041 0.033,0.041v0.032c0.021,0.022 0.035,0.044 0.041,0.065s0.008,0.038 0.008,0.049l0.016,0.049c0.011,0.012 0.019,0.027 0.024,0.05c0.005,0.021 0.008,0.043 0.008,0.064c0.011,0.012 0.017,0.039 0.017,0.082c0.011,0.022 0.016,0.049 0.016,0.082l0.017,0.081v0.18c0,0.469 -0.167,0.871 -0.499,1.209s-0.732,0.506 -1.2,0.506h-7.334v5.717h4.443c0.675,0 1.25,0.243 1.723,0.728s0.716,1.08 0.727,1.788c-0.022,0.686 -0.27,1.264 -0.743,1.731c-0.474,0.468 -1.043,0.702 -1.707,0.702h-4.443v5.178c0,1.089 -0.414,2.047 -1.241,2.875c-0.675,0.631 -1.405,0.99 -2.188,1.077L60.299,248.649z" fill="#FF2359"/>
  <path d="M90.074,248.764c-0.925,0 -1.541,-0.196 -1.845,-0.588c-0.262,-0.327 -0.469,-0.773 -0.621,-1.34l-0.898,-2.76c-0.033,-0.186 -0.12,-0.446 -0.262,-0.784l-0.751,-2.287h-6.484l-0.441,1.291c-0.675,1.96 -1.171,3.37 -1.486,4.23c-0.218,0.729 -0.501,1.271 -0.85,1.625s-1.04,0.558 -2.074,0.612c-1.666,0 -2.983,-0.561 -3.953,-1.683c-0.436,-0.555 -0.653,-1.089 -0.653,-1.601c0,-0.544 0.152,-1.192 0.458,-1.943c0.13,-0.349 1.938,-6.131 5.422,-17.346c0.403,-0.958 1.144,-1.476 2.221,-1.552h6.19c0.458,0.055 0.806,0.3 1.045,0.734l0.311,0.85l2.858,8.199c2.439,7.034 3.713,10.698 3.822,10.992c0.185,0.425 0.278,0.807 0.278,1.144c0,0.283 -0.115,0.615 -0.343,0.996C91.583,248.273 90.935,248.677 90.074,248.764zM84.603,237.543l-2.058,-7.317l-2.189,7.317H84.603z" fill="#FF2359"/>
  <path d="M98.421,247.751c-2.124,-0.816 -3.713,-2.597 -4.77,-5.341l-0.245,-0.752c-0.033,-0.13 -0.049,-0.261 -0.049,-0.392c0,-0.305 0.098,-0.582 0.294,-0.833c0.349,-0.457 0.8,-0.686 1.355,-0.686c0.37,0 0.697,0.098 0.98,0.294c0.283,0.195 0.49,0.457 0.621,0.783c0.424,1.209 1.062,2.184 1.911,2.924c1.078,0.959 2.379,1.438 3.904,1.438c0.937,0 1.688,-0.207 2.254,-0.62c0.631,-0.446 0.947,-1.023 0.947,-1.731c0,-1.034 -1.17,-1.905 -3.512,-2.613c-2.188,-0.643 -3.893,-1.236 -5.112,-1.78c-2.548,-1.111 -3.822,-2.962 -3.822,-5.554c0,-2.341 0.854,-4.247 2.564,-5.717c1.589,-1.372 3.637,-2.058 6.141,-2.058c4.443,0 7.486,1.606 9.13,4.818c0.239,0.349 0.414,0.708 0.522,1.078c0.076,0.283 0.115,0.495 0.115,0.637c0,0.262 -0.065,0.522 -0.196,0.784c-0.337,0.588 -0.672,0.888 -1.004,0.898c-0.333,0.011 -0.509,0.016 -0.531,0.016c-0.599,0 -1.1,-0.288 -1.503,-0.865c-0.152,-0.262 -0.289,-0.512 -0.408,-0.751c-0.904,-2.036 -2.619,-3.055 -5.145,-3.055c-0.915,0 -1.677,0.229 -2.287,0.686c-0.653,0.469 -0.98,1.04 -0.98,1.716c0,0.947 1.1,1.671 3.299,2.172c3.833,0.85 6.43,1.928 7.791,3.234c1.122,1.066 1.682,2.504 1.682,4.312c0,2.429 -0.882,4.355 -2.646,5.782c-1.633,1.317 -3.778,1.977 -6.435,1.977C101.426,248.552 99.803,248.284 98.421,247.751z" fill="#FF2359"/>
  <path d="M122.308,247.727c-0.713,-0.594 -1.173,-1.358 -1.38,-2.295v-16.48h-5.75c-0.773,0 -1.345,-0.283 -1.715,-0.849c-0.186,-0.316 -0.278,-0.638 -0.278,-0.964c0,-0.327 0.092,-0.653 0.278,-0.98c0.327,-0.501 0.789,-0.784 1.388,-0.85h19.567c0.784,0 1.355,0.284 1.715,0.85c0.196,0.327 0.294,0.653 0.294,0.98c0,0.326 -0.098,0.647 -0.294,0.964c-0.359,0.565 -0.931,0.849 -1.715,0.849h-5.75v16.48c-0.207,0.937 -0.669,1.701 -1.388,2.295s-1.546,0.89 -2.483,0.89C123.852,248.616 123.021,248.32 122.308,247.727z" fill="#FF2359"/>
  <path d="M150.328,248.764c-1.241,-0.087 -2.325,-0.561 -3.25,-1.421c-1.078,-1.057 -1.617,-2.353 -1.617,-3.888v-13.72c0.043,-1.438 0.583,-2.656 1.617,-3.658c0.925,-0.871 2.009,-1.351 3.25,-1.438h4.982c4.824,0 8.403,0.988 10.739,2.964c2.336,1.977 3.504,5.007 3.504,9.09c0,4.072 -1.168,7.103 -3.504,9.09c-2.335,1.987 -5.915,2.98 -10.739,2.98H150.328zM159.066,243.268c0.762,-1.313 1.144,-3.504 1.144,-6.574c0,-3.081 -0.381,-5.281 -1.144,-6.599s-2.015,-1.977 -3.756,-1.977h-1.911v17.117h1.911C157.051,245.235 158.304,244.58 159.066,243.268z" fill="#FF2359"/>
  <path d="M175.236,248.552c-1.241,-0.088 -2.325,-0.562 -3.25,-1.422c-1.078,-1.056 -1.617,-2.352 -1.617,-3.887v-12.626c0,-1.546 0.539,-2.836 1.617,-3.871c0.925,-0.871 2.009,-1.345 3.25,-1.421h10.404c0.272,0 0.544,0.065 0.817,0.196c0.033,0.011 0.051,0.02 0.057,0.024c0.005,0.006 0.021,0.014 0.049,0.024s0.052,0.027 0.074,0.049l0.163,0.147c0.022,0 0.033,0.006 0.033,0.017l0.017,0.032l0.196,0.212c0,0.022 0.005,0.036 0.016,0.041c0.011,0.006 0.022,0.014 0.033,0.024l0.065,0.131l0.049,0.098l0.016,0.033c0.011,0.011 0.021,0.03 0.033,0.057c0.011,0.027 0.019,0.055 0.024,0.082s0.011,0.049 0.016,0.065s0.008,0.047 0.008,0.09l0.017,0.032v0.05c0.011,0.011 0.016,0.038 0.016,0.081l0.017,0.082v0.131c0,0.468 -0.167,0.871 -0.499,1.208c-0.332,0.338 -0.738,0.507 -1.217,0.507h-7.333v5.717h4.426c0.686,0 1.263,0.234 1.731,0.702c0.468,0.468 0.719,1.045 0.751,1.731v0.049c0,0.675 -0.251,1.263 -0.751,1.764c-0.468,0.469 -1.045,0.702 -1.731,0.702h-4.426v5.733l7.383,-0.017c0.033,0.011 0.092,0.017 0.18,0.017c0.021,0.011 0.049,0.017 0.082,0.017s0.063,0.008 0.09,0.024c0.027,0.017 0.051,0.027 0.073,0.032c0.022,0.006 0.041,0.011 0.057,0.017c0.017,0.006 0.049,0.017 0.098,0.032c0.049,0.017 0.098,0.039 0.147,0.065c0.049,0.027 0.095,0.052 0.139,0.074c0.043,0.043 0.087,0.081 0.131,0.114c0.043,0.032 0.092,0.06 0.147,0.081c0.033,0.055 0.063,0.096 0.09,0.123s0.046,0.052 0.057,0.073c0.043,0.044 0.079,0.084 0.106,0.122c0.027,0.039 0.051,0.074 0.073,0.106l0.147,0.393l0.049,0.294v0.229l-0.017,0.131l-0.016,0.114l-0.065,0.261c-0.011,0.011 -0.017,0.022 -0.017,0.033s-0.002,0.024 -0.008,0.04c-0.006,0.017 -0.02,0.036 -0.041,0.058l-0.016,0.049c-0.022,0.022 -0.033,0.044 -0.033,0.065h-0.017v0.033c-0.011,0 -0.022,0.005 -0.033,0.016v0.033l-0.016,0.032c-0.022,0.022 -0.039,0.044 -0.049,0.065c-0.011,0.022 -0.022,0.035 -0.033,0.041c-0.011,0.006 -0.022,0.014 -0.033,0.024c-0.022,0.021 -0.044,0.049 -0.065,0.082c-0.022,0.032 -0.043,0.055 -0.065,0.065s-0.036,0.019 -0.041,0.024c-0.006,0.005 -0.014,0.014 -0.025,0.024c-0.022,0.021 -0.038,0.041 -0.049,0.057c-0.011,0.017 -0.024,0.027 -0.041,0.033c-0.016,0.005 -0.03,0.014 -0.041,0.024c-0.011,0.011 -0.024,0.019 -0.041,0.024c-0.016,0.006 -0.03,0.014 -0.041,0.024l-0.032,0.017c-0.011,0.011 -0.022,0.019 -0.033,0.024c-0.011,0.006 -0.022,0.014 -0.033,0.024l-0.033,0.017c-0.229,0.119 -0.49,0.18 -0.784,0.18H175.236z" fill="#FF2359"/>
  <path d="M192.141,248.633c-1.089,0 -2.022,-0.389 -2.801,-1.168c-0.779,-0.778 -1.168,-1.712 -1.168,-2.801v-15.305c0,-1.088 0.389,-2.022 1.168,-2.801c0.778,-0.778 1.712,-1.168 2.801,-1.168c1.1,0 2.036,0.39 2.81,1.168c0.773,0.778 1.16,1.713 1.16,2.801v15.19l0.506,0.017c2.123,0 3.631,-0.033 4.524,-0.099c1.088,-0.087 1.75,-0.44 1.984,-1.062c0.234,-0.62 0.351,-1.399 0.351,-2.336v-0.375l0.017,-0.359c0.327,-0.937 0.963,-1.405 1.911,-1.405c0.904,0.065 1.508,0.534 1.813,1.405c0.033,0.37 0.049,0.74 0.049,1.11c0,2.482 -0.637,4.41 -1.911,5.782c-0.795,0.86 -1.895,1.328 -3.299,1.404H192.141z" fill="#FF2359"/>
  <path d="M209.242,248.552c-0.359,-0.131 -0.643,-0.346 -0.849,-0.646c-0.207,-0.3 -0.311,-0.629 -0.311,-0.988c0,-0.37 0.104,-0.705 0.311,-1.005c0.207,-0.299 0.49,-0.514 0.849,-0.645c0.817,0 1.342,-0.111 1.576,-0.335c0.234,-0.224 0.351,-0.776 0.351,-1.658v-12.69c0,-0.882 -0.117,-1.435 -0.351,-1.658c-0.234,-0.223 -0.759,-0.335 -1.576,-0.335c-0.359,-0.119 -0.643,-0.329 -0.849,-0.629c-0.207,-0.299 -0.311,-0.64 -0.311,-1.021c0,-0.359 0.104,-0.688 0.311,-0.988c0.207,-0.299 0.49,-0.509 0.849,-0.629h11.515c0.348,0.12 0.628,0.33 0.841,0.629c0.212,0.3 0.319,0.629 0.319,0.988c0,0.381 -0.106,0.722 -0.319,1.021c-0.212,0.3 -0.493,0.51 -0.841,0.629c-0.828,0.012 -1.356,0.126 -1.584,0.344s-0.343,0.768 -0.343,1.649v12.69c0,0.882 0.117,1.435 0.352,1.658c0.234,0.224 0.759,0.335 1.576,0.335c0.348,0.131 0.628,0.346 0.841,0.645c0.212,0.3 0.319,0.635 0.319,1.005c0,0.359 -0.106,0.688 -0.319,0.988s-0.493,0.515 -0.841,0.646H209.242z" fill="#FF2359"/>
  <path d="M230.36,248.616c-1.078,-0.054 -1.829,-0.675 -2.254,-1.861c-1.753,-5.641 -3.506,-11.292 -5.259,-16.954c-0.076,-0.315 -0.114,-0.632 -0.114,-0.947c0,-0.588 0.147,-1.148 0.441,-1.683c0.446,-0.806 1.132,-1.361 2.058,-1.666c0.381,-0.108 0.751,-0.163 1.111,-0.163c0.544,0 1.062,0.125 1.551,0.376c0.817,0.414 1.405,1.077 1.764,1.992l0.686,2.417l0.049,0.229l3.675,11.923l5.03,-15.517c0.425,-0.958 1.122,-1.438 2.091,-1.438c0.261,0 0.523,0.044 0.784,0.131c0.577,0.207 0.98,0.522 1.208,0.947s0.343,0.822 0.343,1.192c0,0.207 -0.027,0.414 -0.082,0.621c-1.666,4.954 -3.746,11.21 -6.239,18.767c-0.425,1.045 -1.296,1.59 -2.613,1.633H230.36z" fill="#FF2359"/>
  <path d="M248.882,248.552c-1.241,-0.088 -2.325,-0.562 -3.25,-1.422c-1.078,-1.056 -1.617,-2.352 -1.617,-3.887v-12.626c0,-1.546 0.539,-2.836 1.617,-3.871c0.925,-0.871 2.009,-1.345 3.25,-1.421h10.404c0.272,0 0.544,0.065 0.817,0.196c0.033,0.011 0.051,0.02 0.057,0.024c0.005,0.006 0.021,0.014 0.049,0.024s0.052,0.027 0.074,0.049l0.163,0.147c0.022,0 0.033,0.006 0.033,0.017l0.017,0.032l0.196,0.212c0,0.022 0.005,0.036 0.016,0.041c0.011,0.006 0.022,0.014 0.033,0.024l0.065,0.131l0.049,0.098l0.016,0.033c0.011,0.011 0.021,0.03 0.033,0.057c0.011,0.027 0.019,0.055 0.024,0.082s0.011,0.049 0.016,0.065s0.008,0.047 0.008,0.09l0.017,0.032v0.05c0.011,0.011 0.016,0.038 0.016,0.081l0.017,0.082v0.131c0,0.468 -0.167,0.871 -0.499,1.208c-0.332,0.338 -0.738,0.507 -1.217,0.507h-7.333v5.717h4.426c0.686,0 1.263,0.234 1.731,0.702c0.468,0.468 0.719,1.045 0.751,1.731v0.049c0,0.675 -0.251,1.263 -0.751,1.764c-0.468,0.469 -1.045,0.702 -1.731,0.702h-4.426v5.733l7.383,-0.017c0.033,0.011 0.092,0.017 0.18,0.017c0.021,0.011 0.049,0.017 0.082,0.017s0.063,0.008 0.09,0.024c0.027,0.017 0.051,0.027 0.073,0.032c0.022,0.006 0.041,0.011 0.057,0.017c0.017,0.006 0.049,0.017 0.098,0.032c0.049,0.017 0.098,0.039 0.147,0.065c0.049,0.027 0.095,0.052 0.139,0.074c0.043,0.043 0.087,0.081 0.131,0.114c0.043,0.032 0.092,0.06 0.147,0.081c0.033,0.055 0.063,0.096 0.09,0.123s0.046,0.052 0.057,0.073c0.043,0.044 0.079,0.084 0.106,0.122c0.027,0.039 0.051,0.074 0.073,0.106l0.147,0.393l0.049,0.294v0.229l-0.017,0.131l-0.016,0.114l-0.065,0.261c-0.011,0.011 -0.017,0.022 -0.017,0.033s-0.002,0.024 -0.008,0.04c-0.006,0.017 -0.02,0.036 -0.041,0.058l-0.016,0.049c-0.022,0.022 -0.033,0.044 -0.033,0.065h-0.017v0.033c-0.011,0 -0.022,0.005 -0.033,0.016v0.033l-0.016,0.032c-0.022,0.022 -0.039,0.044 -0.049,0.065c-0.011,0.022 -0.022,0.035 -0.033,0.041c-0.011,0.006 -0.022,0.014 -0.033,0.024c-0.022,0.021 -0.044,0.049 -0.065,0.082c-0.022,0.032 -0.043,0.055 -0.065,0.065s-0.036,0.019 -0.041,0.024c-0.006,0.005 -0.014,0.014 -0.025,0.024c-0.022,0.021 -0.038,0.041 -0.049,0.057c-0.011,0.017 -0.024,0.027 -0.041,0.033c-0.016,0.005 -0.03,0.014 -0.041,0.024c-0.011,0.011 -0.024,0.019 -0.041,0.024c-0.016,0.006 -0.03,0.014 -0.041,0.024l-0.032,0.017c-0.011,0.011 -0.022,0.019 -0.033,0.024c-0.011,0.006 -0.022,0.014 -0.033,0.024l-0.033,0.017c-0.229,0.119 -0.49,0.18 -0.784,0.18H248.882z" fill="#FF2359"/>
  <path d="M280.422,248.421c-2.058,0 -3.555,-0.452 -4.492,-1.355c-0.958,-0.894 -1.437,-2.325 -1.437,-4.296v-2.009c0,-0.589 -0.027,-1.095 -0.082,-1.52c-1.187,0.076 -2.494,0.114 -3.92,0.114h-0.98v5.194c0,0.697 -0.169,1.342 -0.506,1.936s-0.806,1.064 -1.405,1.413c-0.643,0.349 -1.285,0.522 -1.927,0.522s-1.285,-0.174 -1.927,-0.522c-1.241,-0.763 -1.884,-1.879 -1.927,-3.349v-14.145c0,-1.438 0.479,-2.657 1.438,-3.659c0.903,-0.947 2.052,-1.486 3.446,-1.616h7.301c3.267,0 5.662,0.525 7.187,1.576s2.287,2.692 2.287,4.924c0,2.482 -0.729,4.323 -2.188,5.521c0.381,0.937 0.572,2.592 0.572,4.966c0,0.871 0.065,1.47 0.196,1.797c0.142,0.326 0.376,0.489 0.703,0.489c0.402,0 0.669,-0.354 0.8,-1.062c0.065,-0.294 0.212,-0.517 0.441,-0.67c0.229,-0.152 0.474,-0.229 0.735,-0.229c0.327,0 0.61,0.131 0.85,0.393c0.196,0.218 0.294,0.474 0.294,0.768c-0.153,1.459 -0.561,2.569 -1.225,3.332C283.792,247.926 282.382,248.421 280.422,248.421zM271.096,235.239c1.611,0 2.75,-0.264 3.414,-0.792c0.664,-0.527 0.997,-1.412 0.997,-2.654c0,-1.176 -0.319,-2.009 -0.956,-2.499c-0.637,-0.489 -1.745,-0.734 -3.324,-0.734h-1.666v6.68H271.096z" fill="#FF2359"/>
  <path d="M294.069,247.833c-0.702,-0.479 -1.211,-1.122 -1.527,-1.928v-6.696l-5.112,-8.478c-0.142,-0.25 -0.294,-0.474 -0.457,-0.669c-0.186,-0.458 -0.278,-0.915 -0.278,-1.372c0,-0.37 0.06,-0.735 0.18,-1.095c0.272,-0.806 0.79,-1.438 1.552,-1.895c0.555,-0.294 1.127,-0.441 1.715,-0.441c1.154,0 2.08,0.463 2.777,1.389l3.201,5.26v0.016l1.764,2.875l5.243,-8.526c0.337,-0.512 0.694,-0.811 1.07,-0.898c0.376,-0.087 0.651,-0.13 0.825,-0.13c0.37,0 0.74,0.104 1.11,0.31c0.523,0.327 0.838,0.681 0.947,1.063c0.109,0.381 0.164,0.669 0.164,0.865c0,0.359 -0.087,0.713 -0.261,1.062l-1.176,1.846c-0.098,0.131 -0.577,0.888 -1.438,2.271l-4.116,6.55v6.696c-0.316,0.806 -0.822,1.448 -1.519,1.928c-0.697,0.479 -1.476,0.719 -2.335,0.719C295.547,248.552 294.771,248.312 294.069,247.833z" fill="#FF2359"/>
  <path d="M173.295,150.762c9.177,0 168.672,0.111 168.672,0.111l-161.858,-6.504C180.109,144.369 177.316,148.987 173.295,150.762z" fill="#fff"/>
  <path d="M112.807,134.016c-5.868,0 -10.889,3.601 -12.989,8.71c-1.395,-0.86 -3.032,-1.366 -4.792,-1.366c-3.943,0 -7.293,2.5 -8.579,5.996c-1.104,-0.686 -2.395,-1.1 -3.79,-1.1c-2.388,0 -4.483,1.176 -5.795,2.963l-20.248,2.723h18.998c-0.003,0.017 -0.011,0.031 -0.014,0.048h50.686c0.001,-0.005 0.002,-0.011 0.003,-0.016h7.853C124.452,146.948 124.645,134.772 112.807,134.016z" fill="#fff"/>
  <path d="M71.711,139.831m-2.873,0a2.873,2.873 0,1 1,5.746 0a2.873,2.873 0,1 1,-5.746 0" fill="#fff"/>
  <path d="M87.204,128.58m-4.108,0a4.108,4.108 0,1 1,8.216 0a4.108,4.108 0,1 1,-8.216 0" fill="#fff"/>
  <path d="M50.257,130.729m-4.108,0a4.108,4.108 0,1 1,8.216 0a4.108,4.108 0,1 1,-8.216 0" fill="#fff"/>
  <path d="M118.158,65.021l-8.081,-28.844l-11.101,18.256z" fill="#fff"/>
  <path d="M106.432,33.814l-44.343,12.484l28.285,13.925z" fill="#fff"/>
  <path d="M108.535,35.207l-0.001,0.001l0.001,0z">
    <aapt:attr name="android:fillColor" xmlns:aapt="http://www.w3.org/2000/svg">
      <gradient android:endX="108.5347" android:endY="39.1133" android:startX="108.5347" android:startY="31.3008" android:type="linear">
        <item android:color="#FFFF2359" android:offset="0"/>
        <item android:color="#FFF61E58" android:offset="0.0908"/>
        <item android:color="#FFD70E55" android:offset="0.4646"/>
        <item android:color="#FFC40454" android:offset="0.7809"/>
        <item android:color="#FFBD0053" android:offset="1"/>
      </gradient>
    </aapt:attr>
  </path>
  <path d="M59.492,49.819l8.182,29.203l12.744,-18.901z" fill="#fff"/>
  <path d="M91.503,66.082l-7.397,-3.642l-12.229,18.138l43.386,-12.214l-18.828,-10.392z" fill="#fff"/>
  <path d="M166.626,114.471c2.479,3.613 3.624,8.148 2.839,12.811c-1.606,9.544 -10.644,15.979 -20.188,14.373c-9.544,-1.605 -15.979,-10.644 -14.373,-20.188c0.149,-0.889 0.384,-1.741 0.657,-2.572l-10.92,1.556c-2.129,14.899 8,28.858 22.926,31.369c15.158,2.55 29.513,-7.67 32.063,-22.827c0.953,-5.663 0.122,-11.213 -2.082,-16.077L166.626,114.471z" fill="#fff"/>
  <path d="M204.464,29.9l10.216,-9.444l-4.2,-4.541l-10.215,9.444c-0.896,0.828 -0.95,2.226 -0.122,3.12l1.202,1.3C202.172,30.674 203.569,30.729 204.464,29.9z">
    <aapt:attr name="android:fillColor" xmlns:aapt="http://www.w3.org/2000/svg">
      <gradient android:endX="207.1177" android:endY="119.9877" android:startX="207.1177" android:startY="36.9854" android:type="linear">
        <item android:color="#FFFF2359" android:offset="0"/>
        <item android:color="#FFF01B58" android:offset="0.1864"/>
        <item android:color="#FFCB0854" android:offset="0.7185"/>
        <item android:color="#FFBD0053" android:offset="1"/>
      </gradient>
    </aapt:attr>
  </path>
  <path d="M226.846,6.01l-1.97,11.71c0,0 11.687,1.966 11.709,1.97c3.396,0.571 1.95,-3.778 1.295,-5.454c-1.185,-3.031 -3.105,-5.776 -5.567,-7.908C230.906,5.108 227.357,2.97 226.846,6.01z">
    <aapt:attr name="android:fillColor" xmlns:aapt="http://www.w3.org/2000/svg">
      <gradient android:endX="231.814" android:endY="119.9905" android:startX="231.814" android:startY="36.9863" android:type="linear">
        <item android:color="#FFFF2359" android:offset="0"/>
        <item android:color="#FFF01B58" android:offset="0.1864"/>
        <item android:color="#FFCB0854" android:offset="0.7185"/>
        <item android:color="#FFBD0053" android:offset="1"/>
      </gradient>
    </aapt:attr>
  </path>
  <path d="M211.623,15.809l-27.999,-8.243c-0.982,-0.343 -1.786,0.834 -1.11,1.624l12.035,14.073c0.685,0.801 1.987,0.162 1.772,-0.87l-1.492,-7.174l15.771,4.319L211.623,15.809z">
    <aapt:attr name="android:fillColor" xmlns:aapt="http://www.w3.org/2000/svg">
      <gradient android:endX="196.9438" android:endY="119.9961" android:startX="196.9438" android:startY="36.9873" android:type="linear">
        <item android:color="#FFFF2359" android:offset="0"/>
        <item android:color="#FFF01B58" android:offset="0.1864"/>
        <item android:color="#FFCB0854" android:offset="0.7185"/>
        <item android:color="#FFBD0053" android:offset="1"/>
      </gradient>
    </aapt:attr>
  </path>
  <path d="M152.439,124.417m-7.473,0a7.473,7.473 0,1 1,14.946 0a7.473,7.473 0,1 1,-14.946 0">
    <aapt:attr name="android:fillColor" xmlns:aapt="http://www.w3.org/2000/svg">
      <gradient android:endX="152.439" android:endY="119.9903" android:startX="152.439" android:startY="36.9883" android:type="linear">
        <item android:color="#FFFF2359" android:offset="0"/>
        <item android:color="#FFF01B58" android:offset="0.1864"/>
        <item android:color="#FFCB0854" android:offset="0.7185"/>
        <item android:color="#FFBD0053" android:offset="1"/>
      </gradient>
    </aapt:attr>
  </path>
  <path d="M290.79,93.562m-7.473,0a7.473,7.473 0,1 1,14.946 0a7.473,7.473 0,1 1,-14.946 0">
    <aapt:attr name="android:fillColor" xmlns:aapt="http://www.w3.org/2000/svg">
      <gradient android:endX="290.79" android:endY="119.9894" android:startX="290.79" android:startY="36.9873" android:type="linear">
        <item android:color="#FFFF2359" android:offset="0"/>
        <item android:color="#FFF01B58" android:offset="0.1864"/>
        <item android:color="#FFCB0854" android:offset="0.7185"/>
        <item android:color="#FFBD0053" android:offset="1"/>
      </gradient>
    </aapt:attr>
  </path>
  <path d="M255.188,100.416l51.381,-42.236c1.021,-0.84 0.767,-2.48 -0.467,-2.956c-2.577,-0.992 -5.288,-1.746 -8.117,-2.222c-13.597,-2.288 -26.766,2.233 -36.021,11.081L255.188,100.416z">
    <aapt:attr name="android:fillColor" xmlns:aapt="http://www.w3.org/2000/svg">
      <gradient android:endX="281.1958" android:endY="119.9896" android:startX="281.1958" android:startY="36.9863" android:type="linear">
        <item android:color="#FFFF2359" android:offset="0"/>
        <item android:color="#FFF01B58" android:offset="0.1864"/>
        <item android:color="#FFCB0854" android:offset="0.7185"/>
        <item android:color="#FFBD0053" android:offset="1"/>
      </gradient>
    </aapt:attr>
  </path>
  <path d="M123.829,69.293l46.08,6.652l27.416,-13.276c1.759,-0.852 1.969,-3.304 0.349,-4.396c-5.689,-3.839 -16.9,-8.478 -33.89,-6.164C143.172,54.916 129.326,64.817 123.829,69.293z">
    <aapt:attr name="android:fillColor" xmlns:aapt="http://www.w3.org/2000/svg">
      <gradient android:endX="161.3022" android:endY="119.9899" android:startX="161.3022" android:startY="36.9863" android:type="linear">
        <item android:color="#FFFF2359" android:offset="0"/>
        <item android:color="#FFF01B58" android:offset="0.1864"/>
        <item android:color="#FFCB0854" android:offset="0.7185"/>
        <item android:color="#FFBD0053" android:offset="1"/>
      </gradient>
    </aapt:attr>
  </path>
  <path d="M72.749,90.844c-1.121,0 -2.152,-0.737 -2.477,-1.868c-0.393,-1.368 0.399,-2.796 1.767,-3.188l47.256,-13.577c0.378,-0.109 0.777,-0.13 1.165,-0.06l18.455,3.301c1.401,0.25 2.334,1.59 2.084,2.991c-0.251,1.402 -1.594,2.336 -2.991,2.083l-17.866,-3.195l-46.68,13.412C73.224,90.811 72.984,90.844 72.749,90.844z">
    <aapt:attr name="android:fillColor" xmlns:aapt="http://www.w3.org/2000/svg">
      <gradient android:endX="105.6055" android:endY="125.6091" android:startX="105.6055" android:startY="32.8623" android:type="linear">
        <item android:color="#FFFF2359" android:offset="0"/>
        <item android:color="#FFF01B58" android:offset="0.1864"/>
        <item android:color="#FFCB0854" android:offset="0.7185"/>
        <item android:color="#FFBD0053" android:offset="1"/>
      </gradient>
    </aapt:attr>
  </path>
  <path d="M155.986,87.448c-17.127,-2.872 -33.417,8.712 -36.3,25.845c-0.22,1.31 -0.33,2.632 -0.386,3.951l61.286,-8.84C176.878,97.521 167.387,89.367 155.986,87.448z">
    <aapt:attr name="android:fillColor" xmlns:aapt="http://www.w3.org/2000/svg">
      <gradient android:endX="149.9438" android:endY="119.9902" android:startX="149.9438" android:startY="36.9844" android:type="linear">
        <item android:color="#FFFF2359" android:offset="0"/>
        <item android:color="#FFF01B58" android:offset="0.1864"/>
        <item android:color="#FFCB0854" android:offset="0.7185"/>
        <item android:color="#FFBD0053" android:offset="1"/>
      </gradient>
    </aapt:attr>
  </path>
  <path d="M184.469,107.844c-3.992,-12.559 -14.804,-22.015 -27.84,-24.208c-19.242,-3.235 -37.519,9.78 -40.754,29.017c-0.287,1.706 -0.425,3.435 -0.462,5.152l-6.269,0.904c-2.756,0.397 -5.175,-1.859 -4.944,-4.635c0.712,-8.563 4.796,-25.551 24.938,-37.145c2.527,-1.455 5.458,-2.063 8.346,-1.657l33.411,4.69l28.236,-14.064l-4.18,18.608c-0.665,2.959 -0.354,6.053 0.887,8.819l2.937,6.554c1.83,4.083 6.251,6.346 10.633,5.441l27.518,-5.681c3.722,-0.769 6.632,-3.673 7.409,-7.394l4.511,-21.615c0.602,-2.884 -0.163,-5.884 -2.071,-8.128l-38.207,-44.929l7.908,-7.631c1.463,-1.412 3.813,-1.298 5.132,0.25l46.452,54.497l-8.842,41.829c-0.848,4.013 -4.014,7.13 -8.041,7.916l-50.393,9.771c-4.664,0.911 -10.143,-1.449 -12.086,-5.786L184.469,107.844z">
    <aapt:attr name="android:fillColor" xmlns:aapt="http://www.w3.org/2000/svg">
      <gradient android:endX="186.1211" android:endY="119.9902" android:startX="186.1211" android:startY="36.9863" android:type="linear">
        <item android:color="#FFFF2359" android:offset="0"/>
        <item android:color="#FFF01B58" android:offset="0.1864"/>
        <item android:color="#FFCB0854" android:offset="0.7185"/>
        <item android:color="#FFBD0053" android:offset="1"/>
      </gradient>
    </aapt:attr>
  </path>
  <path d="M22.17,68.854l34.276,-7.254l-1.837,-5.944z">
    <aapt:attr name="android:fillColor" xmlns:aapt="http://www.w3.org/2000/svg">
      <gradient android:endX="39.3081" android:endY="119.9897" android:startX="39.3081" android:startY="36.9863" android:type="linear">
        <item android:color="#FFFF2359" android:offset="0"/>
        <item android:color="#FFF01B58" android:offset="0.1864"/>
        <item android:color="#FFCB0854" android:offset="0.7185"/>
        <item android:color="#FFBD0053" android:offset="1"/>
      </gradient>
    </aapt:attr>
  </path>
  <path d="M3.067,82.32l56.251,-11.424l-2.794,-9.043z">
    <aapt:attr name="android:fillColor" xmlns:aapt="http://www.w3.org/2000/svg">
      <gradient android:endX="31.1929" android:endY="119.9895" android:startX="31.1929" android:startY="36.9863" android:type="linear">
        <item android:color="#FFFF2359" android:offset="0"/>
        <item android:color="#FFF01B58" android:offset="0.1864"/>
        <item android:color="#FFCB0854" android:offset="0.7185"/>
        <item android:color="#FFBD0053" android:offset="1"/>
      </gradient>
    </aapt:attr>
  </path>
  <path d="M27.218,84.213l33.991,-7.194l-1.82,-5.895z">
    <aapt:attr name="android:fillColor" xmlns:aapt="http://www.w3.org/2000/svg">
      <gradient android:endX="44.2134" android:endY="119.9898" android:startX="44.2134" android:startY="36.9854" android:type="linear">
        <item android:color="#FFFF2359" android:offset="0"/>
        <item android:color="#FFF01B58" android:offset="0.1864"/>
        <item android:color="#FFCB0854" android:offset="0.7185"/>
        <item android:color="#FFBD0053" android:offset="1"/>
      </gradient>
    </aapt:attr>
  </path>
  <path d="M300.77,68.359l-10.372,8.55c1.159,-0.04 2.338,0.034 3.526,0.234c9.543,1.605 15.979,10.644 14.373,20.188c-1.606,9.543 -10.644,15.979 -20.188,14.373c-9.544,-1.605 -15.979,-10.645 -14.373,-20.188c0.061,-0.363 0.153,-0.713 0.235,-1.067l-10.403,8.575c1.907,11.379 10.813,20.822 22.83,22.844c15.158,2.551 29.513,-7.67 32.063,-22.827C320.711,85.669 313.02,72.928 300.77,68.359z" fill="#fff"/>
</svg>